<?xml version="1.0" encoding="utf-8"?>
<!-- Generator: Adobe Illustrator 21.0.2, SVG Export Plug-In . SVG Version: 6.00 Build 0)  -->
<svg version="1.1" id="Calque_1" xmlns="http://www.w3.org/2000/svg" xmlns:xlink="http://www.w3.org/1999/xlink" x="0px" y="0px"
	 viewBox="0 0 90.3 59.5" style="enable-background:new 0 0 90.3 59.5;" xml:space="preserve">
<style type="text/css">
	.st0{fill:#FFFFFF;}
</style>
<title>Fichier 2</title>
<g id="Calque_1-2">
	<g id="XMLID_1_">
		<g>
			<path class="st0" d="M90.4,43.2c0,1-0.4,2-1.1,2.7c-0.4-1.7-1.4-3.3-2.9-4.3c-0.9-7.5-7.7-12.9-15.2-12c-3.5,0.4-6.7,2.1-8.9,4.8
				c1.2,1.4,2.3,2.9,3.1,4.5v1.3h-2c-0.6,0-1.2,0.1-1.7,0.2c-0.5-0.9-1-1.7-1.6-2.5c-0.8-1.1-1.8-2.1-2.9-3c-7-5.8-17.1-5.8-24.1,0
				c-1.1,0.9-2,1.9-2.9,3c-2.6,3.3-4,7.5-4,11.7h30.1c0.5,1.5,1.4,2.9,2.7,3.9H26.2c-2.2,0-3.9-1.8-3.9-3.9c0-0.8,0.1-1.6,0.1-2.4
				H3.9c-2.2,0-3.9-1.7-3.9-3.9c0-6.8,3.9-13,10-15.9c-5-4.2-5.7-11.7-1.5-16.7c4.2-5,11.7-5.7,16.7-1.5c2.4,2.1,3.9,4.9,4.2,7.8
				c0.3,3.1-0.5,6.3-2.7,8.9c-0.4,0.5-0.9,1-1.5,1.5c2.2,1.1,4.1,2.5,5.7,4.4c2-1.6,4.3-2.9,6.8-3.8c-4.2-2.4-6.7-6.6-7.3-11
				c-0.4-3.2,0.2-6.5,1.9-9.4C36.4,0.3,45.6-2.1,52.7,2c5.4,3.1,8.1,9.1,7.3,14.8c-0.3,1.9-0.9,3.8-1.9,5.6
				c-1.3,2.3-3.2,4.1-5.4,5.4c2.5,0.9,4.8,2.1,6.8,3.8c1.6-1.8,3.5-3.3,5.7-4.4C62,24.7,60.6,20.8,61,17c0.2-2.3,1.1-4.5,2.7-6.4
				c4.2-5,11.7-5.7,16.7-1.5c5,4.2,5.7,11.7,1.5,16.7c-0.4,0.5-0.9,1-1.5,1.5C86.5,30.2,90.4,36.4,90.4,43.2z M80.7,18.2
				c0-4.4-3.6-8-8-8c-4.4,0-8,3.6-8,8s3.6,8,8,8C77.2,26.2,80.7,22.6,80.7,18.2z M56.2,15c0-6.1-4.9-11-11-11s-11,4.9-11,11
				s4.9,11,11,11S56.2,21.1,56.2,15z M28.1,34.3L28.1,34.3L28.1,34.3c-4.9-5.8-13.5-6.5-19.3-1.6c-3.1,2.6-4.9,6.4-4.9,10.5h19.3
				C24.1,39.9,25.8,36.9,28.1,34.3L28.1,34.3z M25.6,18.2c0-4.4-3.6-8-8-8s-8,3.6-8,8c0,4.4,3.6,8,8,8v0
				C22,26.2,25.6,22.6,25.6,18.2z"/>
			<path class="st0" d="M84.8,47.6c0,0.7-0.3,1.4-0.8,1.9c-0.5,0.5-1.3,0.8-2,0.8h-6.4v6.4c0,0.8-0.3,1.5-0.8,2
				c-0.5,0.5-1.2,0.8-1.9,0.8c-0.8,0-1.4-0.3-1.9-0.8c-0.5-0.5-0.8-1.2-0.8-1.9v-6.5h-6.7c-1.5,0-2.7-1.2-2.8-2.7
				c0-0.7,0.3-1.4,0.8-1.9c0.5-0.5,1.3-0.8,2-0.8h6.6v-6.6c0-0.8,0.3-1.5,0.8-2c0.5-0.5,1.2-0.8,1.9-0.8c1.5,0,2.8,1.3,2.8,2.8v6.7
				H82C83.5,44.9,84.8,46.1,84.8,47.6z"/>
			<polygon points="28.1,34.3 28.1,34.3 28.1,34.3 			"/>
		</g>
		<g>
		</g>
	</g>
</g>
</svg>
